<svg xmlns="http://www.w3.org/2000/svg" viewBox="0 0 32 32"><path class="outline" d="M8.71,24.82a3.25,3.25,0,0,0-2-2.5,3.41,3.41,0,0,0-2.4.13,3.67,3.67,0,0,0-.93,5.94,3.87,3.87,0,0,0,2.64.84H24.59"/><line class="outline" x1="23.71" y1="29.23" x2="24.59" y2="23.06"/><line class="outline" x1="18.42" y1="29.23" x2="17.54" y2="24.82"/><path class="outline" d="M22.83,23.06c2.29-.52,3.88-.69,5.34-2.16.61-.62,1.66-2.26,1.52-2.53A13.76,13.76,0,0,0,27,14.44c-1-.92-3.67-1.94-4.44-2.34,0,0-1.4-8.19-5.88-9.33,0,0-2.58,3.4.88,9.71"/><path class="outline" d="M11.36,13.35a5.38,5.38,0,0,0-3.53.74A8.3,8.3,0,0,0,5.21,18.5"/><path class="outline" d="M16.31,9.73s-1.92-4.84-6.22-4.85a11.24,11.24,0,0,0,3,10.24"/></svg>