<?xml version="1.0" encoding="utf-8"?>
<svg version="1.1" id="Layer_1" xmlns="http://www.w3.org/2000/svg" xmlns:xlink="http://www.w3.org/1999/xlink" x="0px" y="0px"
	 viewBox="0 0 32 32" class="icon-svg" style="enable-background:new 0 0 32 32;" xml:space="preserve">
<style type="text/css">
	.icon-svg-path{fill:none;stroke:#FFFFFF;stroke-width:3.427;stroke-linecap:round;stroke-linejoin:round;stroke-miterlimit:10;}
	.icon-svg-path.filled{fill:#FFFFFF;}
</style>
<path class="icon-svg-path" d="M6.934,15.767c0,0-0.951-2.606,0.706-4.912c0.894-1.245,1.531-1.872,3.665-2.123
	c4.305-0.505,5.09,3.671,5.09,3.671s2.746-2.649,5.662-0.514c1.986,1.454,1.738,4.186,1.738,4.186s1.995-0.79,3.725,0.213
	c0.577,0.334,2.144,1.171,2.144,4.044c0,2.962-3.386,2.98-3.386,2.98s-16.282,0-20.113,0S2.335,19.48,2.335,19.48
	s-0.027-3.831,3.831-3.831c2.306,0,2.873,2.873,2.873,2.873"/>
</svg>
