<svg xmlns="http://www.w3.org/2000/svg" viewBox="0 0 32 32"><polyline class="outline" points="18.86 3.08 15.88 8.05 15.88 16"/><line class="outline" x1="12.9" y1="3.08" x2="15.88" y2="8.05"/><polyline class="outline" points="12.9 28.92 15.88 23.95 15.88 16"/><line class="outline" x1="18.86" y1="28.92" x2="15.88" y2="23.95"/><polyline class="outline" points="28.8 12.22 23 12.12 16.12 16.1"/><line class="outline" x1="25.82" y1="7.06" x2="23" y2="12.12"/><polyline class="outline" points="6.18 7.06 9 12.12 15.88 16.1"/><line class="outline" x1="3.2" y1="12.22" x2="9" y2="12.12"/><polyline class="outline" points="3.2 19.88 9 19.97 15.88 16"/><line class="outline" x1="6.18" y1="25.04" x2="9" y2="19.97"/><polyline class="outline" points="25.82 25.04 23 19.97 16.12 16"/><line class="outline" x1="28.8" y1="19.88" x2="23" y2="19.97"/></svg>