<?xml version="1.0" encoding="utf-8"?>
<svg version="1.1" id="Layer_1" xmlns="http://www.w3.org/2000/svg" xmlns:xlink="http://www.w3.org/1999/xlink" x="0px" y="0px"
	 viewBox="0 0 32 32" class="icon-svg" style="enable-background:new 0 0 32 32;" xml:space="preserve">
<style type="text/css">
	.icon-svg-path{fill:none;stroke:#FFFFFF;stroke-width:3.427;stroke-linecap:round;stroke-linejoin:round;stroke-miterlimit:10;}
	.icon-svg-path.filled{fill:#FFFFFF;}
</style>
<polyline class="icon-svg-path" points="18.861,3.083 15.88,8.051 15.88,16 "/>
<line class="icon-svg-path" x1="12.899" y1="3.083" x2="15.88" y2="8.051"/>
<polyline class="icon-svg-path" points="12.899,28.917 15.88,23.949 15.88,16 "/>
<line class="icon-svg-path" x1="18.861" y1="28.917" x2="15.88" y2="23.949"/>
<polyline class="icon-svg-path" points="28.797,12.221 23.004,12.123 16.12,16.097 "/>
<line class="icon-svg-path" x1="25.816" y1="7.058" x2="23.004" y2="12.123"/>
<polyline class="icon-svg-path" points="6.184,7.058 8.996,12.123 15.88,16.097 "/>
<line class="icon-svg-path" x1="3.203" y1="12.221" x2="8.996" y2="12.123"/>
<polyline class="icon-svg-path" points="3.203,19.877 8.996,19.974 15.88,16 "/>
<line class="icon-svg-path" x1="6.184" y1="25.04" x2="8.996" y2="19.974"/>
<polyline class="icon-svg-path" points="25.816,25.04 23.004,19.974 16.12,16 "/>
<line class="icon-svg-path" x1="28.797" y1="19.877" x2="23.004" y2="19.974"/>
</svg>
